<?xml version="1.0" encoding="iso-8859-1"?>
<!-- Generator: Adobe Illustrator 19.0.0, SVG Export Plug-In . SVG Version: 6.00 Build 0)  -->
<svg version="1.1" id="Layer_1" xmlns="http://www.w3.org/2000/svg" xmlns:xlink="http://www.w3.org/1999/xlink" x="0px" y="0px"
	 viewBox="0 0 512 512" style="enable-background:new 0 0 512 512;" xml:space="preserve">
<g>
	<g>
		<path d="M131.959,0v148.434l63.34,63.34V512h121.402V211.774l63.34-63.34V0H131.959z M300.866,496.165h-89.732v-21.113h89.732
			V496.165z M300.866,459.216h-89.732V279.753h89.732V459.216z M300.866,263.918h-89.732v-47.505h89.732V263.918z M364.206,141.876
			l-58.702,58.702h-99.008l-58.703-58.702V79.175h216.412V141.876z M364.206,63.34H147.794V15.835h216.412V63.34z"/>
	</g>
</g>
<g>
	<g>
		<rect x="192.66" y="100.289" width="126.68" height="15.835"/>
	</g>
</g>
<g>
	<g>
		<rect x="329.897" y="100.289" width="21.113" height="15.835"/>
	</g>
</g>
<g>
	<g>
		<rect x="160.99" y="100.289" width="21.113" height="15.835"/>
	</g>
</g>
<g>
	<g>
		<rect x="229.608" y="232.247" width="52.784" height="15.835"/>
	</g>
</g>
<g>
	<g>
		<path d="M226.969,306.144v100.289h58.062V306.144H226.969z M269.196,390.598h-26.392v-26.392h26.392V390.598z M269.196,348.371
			h-26.392v-26.392h26.392V348.371z"/>
	</g>
</g>
<g>
</g>
<g>
</g>
<g>
</g>
<g>
</g>
<g>
</g>
<g>
</g>
<g>
</g>
<g>
</g>
<g>
</g>
<g>
</g>
<g>
</g>
<g>
</g>
<g>
</g>
<g>
</g>
<g>
</g>
</svg>
